<svg width="77" height="81" viewBox="0 0 77 81" fill="none" xmlns="http://www.w3.org/2000/svg">
<path d="M64 19C60.07 28.55 52.49 31.15 43 32C37.1 49.33 43.62 68.47 56 81C79.88 69.71 84.26 36 64 19Z" fill="white"/>
<path d="M47.43 24.31C51.84 22.47 55.62 19.15 58 15C55.43 13.55 52.59 12.51 49.76 11.7L55.32 4.90002C56.37 3.62002 56.18 1.73002 54.9 0.680017C53.62 -0.369983 51.73 -0.179969 50.68 1.10003L43.13 10.33C40.34 9.97003 37.66 9.97003 34.87 10.33L27.32 1.10003C26.27 -0.179969 24.38 -0.369983 23.1 0.680017C21.82 1.73002 21.63 3.62002 22.68 4.90002L28.24 11.7C25.41 12.51 22.57 13.55 20 15C25.42 24.45 37.39 28.5 47.43 24.31Z" fill="white"/>
<path d="M22.0001 29C16.9701 25.49 14.7901 20.91 14.0001 19C12.9601 19.87 -1.42993 32.39 1.00007 52C3.46007 71.85 20.8601 80.46 22.0001 81C34.3801 68.47 40.9001 49.33 35.0001 32C32.9301 31.82 26.4901 32.14 22.0001 29Z" fill="white"/>
</svg>
