<svg width="71" height="93" viewBox="0 0 71 93" fill="none" xmlns="http://www.w3.org/2000/svg">
<path d="M57.66 26.61C67.92 33.9 73.89 47.38 69.36 59.62C65.1 71.14 53.19 78.34 41.19 78.69C50.42 75.41 53.45 63.39 46.89 56.12C40.44 48.98 28.49 50.55 24.08 59.08C19.11 68.68 26.98 78.25 35.6 82.1C45.37 86.46 56.66 83.25 64.5 76.5C51 95.03 23.67 98.29 8.66999 79.81C-1.53001 67.24 -1.77 48.79 7.5 35.5C5.27 42.71 7 50 13 54C7 42 11.03 32.91 19.14 24.86C23.06 20.98 28.05 19.5 32.15 16.11C36.66 12.39 37.25 6.21003 36.38 0.780029C43.58 4.49003 48.09 12.4 47.43 20.5C35.94 20.55 31.82 36.37 41.84 42.02C51.61 47.52 62.94 36.54 57.66 26.61Z" fill="white"/>
</svg>
