<svg width="76" height="80" viewBox="0 0 76 80" fill="none" xmlns="http://www.w3.org/2000/svg">
<path d="M73.7603 1.36999C71.0503 -1.01001 60.2203 1.59999 57.1403 1.97999C46.9803 3.21999 36.7603 5.18 27.0903 8.6C17.0503 12.15 8.84031 17.26 4.13031 27.2C-1.78969 39.68 -0.0496774 54.89 8.52032 65.72C10.7103 63.39 13.8503 61.04 15.5803 58.36C17.8903 54.79 16.6303 47.66 16.8003 43.18C16.8503 41.85 17.3403 23.58 18.2303 23.52C19.3103 23.45 22.0903 41.38 23.0903 48.06C23.2403 49.04 24.4303 49.43 25.1403 48.73C27.5203 46.38 29.9103 44.04 32.3103 41.71C33.9503 40.12 34.7603 39.5 35.2103 37.43C35.6703 35.29 35.3203 32.55 35.4603 30.36C35.5403 29.06 36.4803 12.59 37.6503 12.52C38.7403 12.45 41.3003 25.35 42.2203 30.18C42.3603 30.93 43.2803 31.22 43.8303 30.69C48.6903 25.98 63.7903 11.25 64.5403 11.91C65.3003 12.57 52.6803 29.48 48.6503 34.91C48.1903 35.52 48.6003 36.39 49.3603 36.44C54.2703 36.72 67.3903 37.56 67.4603 38.65C67.5403 39.81 51.2403 42.93 50.0603 43.16C48.0203 43.56 45.8403 43.7 43.8303 44.23C41.2803 44.9 40.8803 45.53 39.2203 47.76C37.2203 50.45 35.2203 53.13 33.1903 55.8C32.5903 56.59 33.1403 57.72 34.1303 57.74C40.8903 57.85 59.0303 58.25 59.1003 59.34C59.1603 60.23 41.1003 63.12 39.8003 63.34C35.6703 64.05 28.6903 63.76 25.3803 65.95C22.8403 67.63 20.4803 72.13 18.5403 74.51C30.0103 81.36 44.7403 81.34 56.2003 74.49C65.7903 68.75 70.1803 60.05 72.5303 49.48C74.7903 39.32 75.4203 28.74 75.3403 18.35C75.3103 14.55 75.2003 10.74 74.8203 6.96C74.7003 5.69 74.8303 2.30999 73.7603 1.36999Z" fill="white"/>
</svg>
