<svg width="48" height="48" viewBox="0 0 48 48" fill="none" xmlns="http://www.w3.org/2000/svg">
<path d="M28.3744 27.4631H7.5665V29.8276H7.68473C8.53356 29.8276 9.22168 30.5157 9.22168 31.3645C9.22168 32.2134 8.53356 32.9015 7.68473 32.9015H7.5665V35.9754H16.9064C17.7552 35.9754 18.4434 36.6635 18.4434 37.5123C18.4434 38.3611 17.7552 39.0493 16.9064 39.0493H13.2414L28.3744 40.9409V39.0493H26.8374C25.9886 39.0493 25.3005 38.3611 25.3005 37.5123C25.3005 36.6635 25.9886 35.9754 26.8374 35.9754H28.3744V32.9015H28.2562C27.4073 32.9015 26.7192 32.2134 26.7192 31.3645C26.7192 30.5157 27.4073 29.8276 28.2562 29.8276H28.3744V27.4631Z" fill="#EB6D4A"/>
<path d="M0 28.2906C0 27.4418 0.688114 26.7537 1.53695 26.7537H44.0985C44.9474 26.7537 45.6355 27.4418 45.6355 28.2906C45.6355 29.1395 44.9474 29.8276 44.0985 29.8276H1.53695C0.688115 29.8276 0 29.1395 0 28.2906Z" fill="#EB6D4A"/>
<path d="M5.43842 34.4384C5.43842 33.5896 6.12654 32.9015 6.97537 32.9015H28.9655C29.8143 32.9015 30.5025 33.5896 30.5025 34.4384C30.5025 35.2873 29.8143 35.9754 28.9655 35.9754H6.97537C6.12654 35.9754 5.43842 35.2873 5.43842 34.4384Z" fill="#EB6D4A"/>
<path d="M8.51232 40.5862C8.51232 39.7374 9.20043 39.0493 10.0493 39.0493H37.2414C38.0902 39.0493 38.7783 39.7374 38.7783 40.5862C38.7783 41.435 38.0902 42.1232 37.2414 42.1232H10.0493C9.20043 42.1232 8.51232 41.435 8.51232 40.5862Z" fill="#EB6D4A"/>
<path d="M41.3793 34.4384C41.3793 33.5896 42.0674 32.9015 42.9163 32.9015H46.4631C47.3119 32.9015 48 33.5896 48 34.4384C48 35.2873 47.3119 35.9754 46.4631 35.9754H42.9163C42.0674 35.9754 41.3793 35.2873 41.3793 34.4384Z" fill="#EB6D4A"/>
<path d="M32.3941 34.4384C32.3941 33.5896 33.0822 32.9015 33.931 32.9015H37.7143C38.5631 32.9015 39.2512 33.5896 39.2512 34.4384C39.2512 35.2873 38.5631 35.9754 37.7143 35.9754H33.931C33.0822 35.9754 32.3941 35.2873 32.3941 34.4384Z" fill="#EB6D4A"/>
<path d="M39.7241 23.2069C39.7241 33.2623 32.4779 28.5271 22.2266 28.5271C11.9753 28.5271 2.60099 33.2623 2.60099 23.2069C2.60099 13.1515 10.9113 5 21.1626 5C31.4138 5 39.7241 13.1515 39.7241 23.2069Z" fill="#EB6D4A"/>
<path d="M25.446 23.4433C25.446 25.9245 23.4217 27.9359 20.9246 27.9359C18.4275 27.9359 16.4032 25.9245 16.4032 23.4433C16.4032 20.9621 18.4275 18.9507 20.9246 18.9507C23.4217 18.9507 25.446 20.9621 25.446 23.4433Z" fill="#464648"/>
<path d="M2.60098 22.7339H39.7241V24.3891H2.60098V22.7339Z" fill="#464648"/>
<circle cx="21.0443" cy="23.4434" r="2.12808" fill="#F4F5F7"/>
</svg>
