<svg width="394" height="312" viewBox="0 0 394 312" fill="none" xmlns="http://www.w3.org/2000/svg">
<g opacity="0.8">
<path d="M232.357 183.949H61.9618V203.312H62.9299C69.881 203.312 75.5159 208.947 75.5159 215.898C75.5159 222.849 69.881 228.484 62.9299 228.484H61.9618V253.656H138.446C145.397 253.656 151.032 259.291 151.032 266.242C151.032 273.193 145.397 278.828 138.446 278.828H108.433L232.357 294.318V278.828H219.771C212.82 278.828 207.185 273.193 207.185 266.242C207.185 259.291 212.82 253.656 219.771 253.656H232.357V228.484H231.389C224.438 228.484 218.803 222.849 218.803 215.898C218.803 208.947 224.438 203.312 231.389 203.312H232.357V183.949Z" fill="#F4F5F7"/>
<path d="M0 190.726C0 183.775 5.63494 178.14 12.586 178.14H361.121C368.072 178.14 373.707 183.775 373.707 190.726C373.707 197.677 368.072 203.312 361.121 203.312H12.586C5.63494 203.312 0 197.677 0 190.726Z" fill="#F4F5F7"/>
<path d="M44.535 241.07C44.535 234.119 50.17 228.484 57.121 228.484H237.197C244.149 228.484 249.783 234.119 249.783 241.07C249.783 248.021 244.149 253.656 237.197 253.656H57.121C50.17 253.656 44.535 248.021 44.535 241.07Z" fill="#F4F5F7"/>
<path d="M69.707 291.414C69.707 284.463 75.3419 278.828 82.293 278.828H304.968C311.919 278.828 317.554 284.463 317.554 291.414C317.554 298.365 311.919 304 304.968 304H82.293C75.3419 304 69.707 298.365 69.707 291.414Z" fill="#F4F5F7"/>
<path d="M338.854 241.07C338.854 234.119 344.488 228.484 351.439 228.484H380.484C387.435 228.484 393.07 234.119 393.07 241.07C393.07 248.021 387.435 253.656 380.484 253.656H351.439C344.488 253.656 338.854 248.021 338.854 241.07Z" fill="#F4F5F7"/>
<path d="M265.274 241.07C265.274 234.119 270.909 228.484 277.86 228.484H308.841C315.792 228.484 321.427 234.119 321.427 241.07C321.427 248.021 315.792 253.656 308.841 253.656H277.86C270.909 253.656 265.274 248.021 265.274 241.07Z" fill="#F4F5F7"/>
<path d="M325.299 149.096C325.299 231.439 265.96 192.662 182.013 192.662C98.0655 192.662 21.2994 231.439 21.2994 149.096C21.2994 66.7524 89.3521 0 173.299 0C257.247 0 325.299 66.7524 325.299 149.096Z" fill="#F4F5F7"/>
<path d="M208.376 151.032C208.376 171.35 191.799 187.822 171.351 187.822C150.902 187.822 134.325 171.35 134.325 151.032C134.325 130.713 150.902 114.242 171.351 114.242C191.799 114.242 208.376 130.713 208.376 151.032Z" fill="#262626"/>
<path d="M21.2993 145.223H325.299V158.777H21.2993V145.223Z" fill="#262626"/>
<circle cx="171.842" cy="151.032" r="17.4268" fill="#F4F5F7"/>
<rect width="393.071" height="304" fill="url(#paint0_linear_1416_1194)"/>
</g>
<path d="M202 170H114V180H114.5C118.09 180 121 182.91 121 186.5C121 190.09 118.09 193 114.5 193H114V206H153.5C157.09 206 160 208.91 160 212.5C160 216.09 157.09 219 153.5 219H138L202 227V219H195.5C191.91 219 189 216.09 189 212.5C189 208.91 191.91 206 195.5 206H202V193H201.5C197.91 193 195 190.09 195 186.5C195 182.91 197.91 180 201.5 180H202V170Z" fill="#EB6D4A"/>
<path d="M82 173.5C82 169.91 84.9101 167 88.5 167H268.5C272.09 167 275 169.91 275 173.5C275 177.09 272.09 180 268.5 180H88.5C84.9102 180 82 177.09 82 173.5Z" fill="#EB6D4A"/>
<path d="M105 199.5C105 195.91 107.91 193 111.5 193H204.5C208.09 193 211 195.91 211 199.5C211 203.09 208.09 206 204.5 206H111.5C107.91 206 105 203.09 105 199.5Z" fill="#EB6D4A"/>
<path d="M118 225.5C118 221.91 120.91 219 124.5 219H239.5C243.09 219 246 221.91 246 225.5C246 229.09 243.09 232 239.5 232H124.5C120.91 232 118 229.09 118 225.5Z" fill="#EB6D4A"/>
<path d="M257 199.5C257 195.91 259.91 193 263.5 193H278.5C282.09 193 285 195.91 285 199.5C285 203.09 282.09 206 278.5 206H263.5C259.91 206 257 203.09 257 199.5Z" fill="#EB6D4A"/>
<path d="M219 199.5C219 195.91 221.91 193 225.5 193H241.5C245.09 193 248 195.91 248 199.5C248 203.09 245.09 206 241.5 206H225.5C221.91 206 219 203.09 219 199.5Z" fill="#EB6D4A"/>
<path d="M250 152C250 194.526 219.354 174.5 176 174.5C132.646 174.5 93 194.526 93 152C93 109.474 128.146 75 171.5 75C214.854 75 250 109.474 250 152Z" fill="#EB6D4A"/>
<path d="M189.615 153C189.615 163.493 181.054 172 170.494 172C159.933 172 151.372 163.493 151.372 153C151.372 142.507 159.933 134 170.494 134C181.054 134 189.615 142.507 189.615 153Z" fill="#464648"/>
<path d="M93 150H250V157H93V150Z" fill="#464648"/>
<circle cx="170" cy="153" r="9" fill="#F4F5F7"/>
<path d="M14.0994 304L1.61364 260.364H11.6918L18.9148 290.683H19.277L27.2457 260.364H35.875L43.8224 290.747H44.206L51.429 260.364H61.5071L49.0213 304H40.0298L31.7202 275.47H31.3793L23.0909 304H14.0994ZM75.3512 285.08V304H66.2745V260.364H75.0955V277.047H75.479C76.2177 275.115 77.4109 273.602 79.0586 272.509C80.7063 271.401 82.7731 270.847 85.2589 270.847C87.5316 270.847 89.5131 271.344 91.2035 272.338C92.908 273.318 94.229 274.732 95.1665 276.578C96.1183 278.411 96.587 280.605 96.5728 283.162V304H87.4961V284.781C87.5103 282.764 86.9989 281.195 85.962 280.072C84.9393 278.95 83.5046 278.389 81.658 278.389C80.4222 278.389 79.3285 278.652 78.3768 279.178C77.4393 279.703 76.7006 280.47 76.1609 281.479C75.6353 282.473 75.3654 283.673 75.3512 285.08ZM118.631 304.639C115.264 304.639 112.366 303.957 109.938 302.594C107.523 301.216 105.662 299.27 104.355 296.756C103.048 294.227 102.395 291.237 102.395 287.786C102.395 284.419 103.048 281.464 104.355 278.922C105.662 276.379 107.501 274.398 109.874 272.977C112.26 271.557 115.058 270.847 118.268 270.847C120.428 270.847 122.438 271.195 124.298 271.891C126.173 272.572 127.807 273.602 129.199 274.98C130.605 276.358 131.699 278.091 132.48 280.179C133.261 282.253 133.652 284.682 133.652 287.466V289.959H106.017V284.334H125.108C125.108 283.027 124.824 281.869 124.256 280.861C123.688 279.852 122.899 279.064 121.891 278.496C120.896 277.913 119.739 277.622 118.418 277.622C117.04 277.622 115.818 277.942 114.753 278.581C113.702 279.206 112.878 280.051 112.281 281.116C111.685 282.168 111.379 283.339 111.365 284.632V289.98C111.365 291.599 111.663 292.999 112.26 294.178C112.871 295.357 113.73 296.266 114.838 296.905C115.946 297.544 117.26 297.864 118.78 297.864C119.788 297.864 120.712 297.722 121.55 297.438C122.388 297.153 123.105 296.727 123.702 296.159C124.298 295.591 124.753 294.895 125.065 294.071L133.46 294.625C133.034 296.642 132.161 298.403 130.839 299.909C129.533 301.401 127.842 302.565 125.768 303.403C123.709 304.227 121.33 304.639 118.631 304.639ZM148.908 304.618C146.82 304.618 144.959 304.256 143.325 303.531C141.692 302.793 140.399 301.706 139.447 300.271C138.51 298.822 138.041 297.018 138.041 294.859C138.041 293.041 138.375 291.514 139.043 290.278C139.71 289.043 140.619 288.048 141.77 287.295C142.92 286.543 144.227 285.974 145.69 285.591C147.168 285.207 148.716 284.938 150.335 284.781C152.239 284.582 153.773 284.398 154.938 284.227C156.102 284.043 156.947 283.773 157.473 283.418C157.999 283.062 158.261 282.537 158.261 281.841V281.713C158.261 280.364 157.835 279.32 156.983 278.581C156.145 277.842 154.952 277.473 153.403 277.473C151.77 277.473 150.47 277.835 149.504 278.56C148.538 279.27 147.899 280.165 147.587 281.244L139.192 280.562C139.618 278.574 140.456 276.855 141.706 275.406C142.956 273.943 144.568 272.821 146.543 272.04C148.531 271.244 150.832 270.847 153.446 270.847C155.264 270.847 157.004 271.06 158.666 271.486C160.342 271.912 161.827 272.572 163.119 273.467C164.426 274.362 165.456 275.513 166.209 276.919C166.962 278.311 167.338 279.98 167.338 281.926V304H158.73V299.462H158.474C157.949 300.484 157.246 301.386 156.365 302.168C155.484 302.935 154.426 303.538 153.19 303.979C151.955 304.405 150.527 304.618 148.908 304.618ZM151.507 298.354C152.842 298.354 154.021 298.091 155.044 297.565C156.067 297.026 156.869 296.301 157.452 295.392C158.034 294.483 158.325 293.453 158.325 292.303V288.83C158.041 289.014 157.651 289.185 157.153 289.341C156.67 289.483 156.124 289.618 155.513 289.746C154.902 289.859 154.291 289.966 153.68 290.065C153.07 290.151 152.516 290.229 152.018 290.3C150.953 290.456 150.023 290.705 149.227 291.045C148.432 291.386 147.814 291.848 147.374 292.43C146.933 292.999 146.713 293.709 146.713 294.561C146.713 295.797 147.161 296.741 148.055 297.395C148.964 298.034 150.115 298.354 151.507 298.354ZM191.788 271.273V278.091H172.079V271.273H191.788ZM176.553 263.432H185.63V293.943C185.63 294.781 185.758 295.435 186.013 295.903C186.269 296.358 186.624 296.678 187.079 296.862C187.548 297.047 188.087 297.139 188.698 297.139C189.124 297.139 189.55 297.104 189.977 297.033C190.403 296.947 190.729 296.884 190.957 296.841L192.384 303.595C191.93 303.737 191.29 303.901 190.467 304.085C189.643 304.284 188.641 304.405 187.462 304.447C185.275 304.533 183.357 304.241 181.71 303.574C180.076 302.906 178.805 301.869 177.896 300.463C176.987 299.057 176.539 297.281 176.553 295.136V263.432ZM212.263 304.639C208.897 304.639 205.999 303.957 203.57 302.594C201.156 301.216 199.295 299.27 197.988 296.756C196.681 294.227 196.028 291.237 196.028 287.786C196.028 284.419 196.681 281.464 197.988 278.922C199.295 276.379 201.134 274.398 203.506 272.977C205.893 271.557 208.691 270.847 211.901 270.847C214.06 270.847 216.07 271.195 217.931 271.891C219.806 272.572 221.44 273.602 222.832 274.98C224.238 276.358 225.332 278.091 226.113 280.179C226.894 282.253 227.285 284.682 227.285 287.466V289.959H199.65V284.334H218.741C218.741 283.027 218.457 281.869 217.888 280.861C217.32 279.852 216.532 279.064 215.523 278.496C214.529 277.913 213.371 277.622 212.05 277.622C210.673 277.622 209.451 277.942 208.386 278.581C207.335 279.206 206.511 280.051 205.914 281.116C205.317 282.168 205.012 283.339 204.998 284.632V289.98C204.998 291.599 205.296 292.999 205.893 294.178C206.504 295.357 207.363 296.266 208.471 296.905C209.579 297.544 210.893 297.864 212.413 297.864C213.421 297.864 214.344 297.722 215.183 297.438C216.021 297.153 216.738 296.727 217.335 296.159C217.931 295.591 218.386 294.895 218.698 294.071L227.093 294.625C226.667 296.642 225.793 298.403 224.472 299.909C223.165 301.401 221.475 302.565 219.401 303.403C217.342 304.227 214.962 304.639 212.263 304.639ZM233.208 304V271.273H242.008V276.983H242.349C242.945 274.952 243.947 273.418 245.353 272.381C246.759 271.33 248.379 270.804 250.211 270.804C250.665 270.804 251.156 270.832 251.681 270.889C252.207 270.946 252.668 271.024 253.066 271.124V279.178C252.64 279.05 252.05 278.936 251.298 278.837C250.545 278.737 249.856 278.688 249.231 278.688C247.896 278.688 246.702 278.979 245.651 279.561C244.614 280.129 243.79 280.925 243.18 281.947C242.583 282.97 242.285 284.149 242.285 285.484V304H233.208ZM273.398 304H257.929V260.364H273.526C277.915 260.364 281.694 261.237 284.861 262.984C288.029 264.717 290.465 267.21 292.169 270.463C293.888 273.716 294.748 277.608 294.748 282.139C294.748 286.685 293.888 290.591 292.169 293.858C290.465 297.125 288.015 299.632 284.819 301.379C281.637 303.126 277.83 304 273.398 304ZM267.155 296.095H273.015C275.742 296.095 278.036 295.612 279.897 294.646C281.772 293.666 283.178 292.153 284.115 290.108C285.067 288.048 285.543 285.392 285.543 282.139C285.543 278.915 285.067 276.28 284.115 274.234C283.178 272.189 281.779 270.683 279.918 269.717C278.057 268.751 275.763 268.268 273.036 268.268H267.155V296.095ZM316.326 304.639C312.96 304.639 310.062 303.957 307.633 302.594C305.218 301.216 303.357 299.27 302.05 296.756C300.744 294.227 300.09 291.237 300.09 287.786C300.09 284.419 300.744 281.464 302.05 278.922C303.357 276.379 305.197 274.398 307.569 272.977C309.955 271.557 312.754 270.847 315.964 270.847C318.123 270.847 320.133 271.195 321.994 271.891C323.869 272.572 325.502 273.602 326.894 274.98C328.3 276.358 329.394 278.091 330.175 280.179C330.957 282.253 331.347 284.682 331.347 287.466V289.959H303.712V284.334H322.803C322.803 283.027 322.519 281.869 321.951 280.861C321.383 279.852 320.594 279.064 319.586 278.496C318.592 277.913 317.434 277.622 316.113 277.622C314.735 277.622 313.513 277.942 312.448 278.581C311.397 279.206 310.573 280.051 309.977 281.116C309.38 282.168 309.075 283.339 309.06 284.632V289.98C309.06 291.599 309.359 292.999 309.955 294.178C310.566 295.357 311.425 296.266 312.533 296.905C313.641 297.544 314.955 297.864 316.475 297.864C317.484 297.864 318.407 297.722 319.245 297.438C320.083 297.153 320.8 296.727 321.397 296.159C321.994 295.591 322.448 294.895 322.761 294.071L331.156 294.625C330.729 296.642 329.856 298.403 328.535 299.909C327.228 301.401 325.538 302.565 323.464 303.403C321.404 304.227 319.025 304.639 316.326 304.639ZM344.27 271.273L350.278 282.714L356.436 271.273H365.747L356.266 287.636L366.003 304H356.734L350.278 292.686L343.929 304H334.554L344.27 287.636L334.895 271.273H344.27Z" fill="#EB6D4A"/>
<defs>
<linearGradient id="paint0_linear_1416_1194" x1="0" y1="0" x2="393.095" y2="304" gradientUnits="userSpaceOnUse">
<stop stop-color="#262626" stop-opacity="0.49"/>
<stop offset="1" stop-color="#262626"/>
</linearGradient>
</defs>
</svg>
