<svg width="695" height="537" viewBox="0 0 695 537" fill="none" xmlns="http://www.w3.org/2000/svg">
<g opacity="0.2">
<path d="M410.446 324.936H109.452V359.14H111.162C123.441 359.14 133.395 369.094 133.395 381.373C133.395 393.651 123.441 403.605 111.162 403.605H109.452V448.07H244.557C256.836 448.07 266.79 458.024 266.79 470.303C266.79 482.581 256.836 492.535 244.557 492.535H191.541L410.446 519.898V492.535H388.213C375.935 492.535 365.981 482.581 365.981 470.303C365.981 458.024 375.935 448.07 388.213 448.07H410.446V403.605H408.736C396.457 403.605 386.503 393.651 386.503 381.373C386.503 369.094 396.457 359.14 408.736 359.14H410.446V324.936Z" fill="#F4F5F7"/>
<path d="M0 336.908C0 324.629 9.95382 314.675 22.2325 314.675H637.901C650.18 314.675 660.134 324.629 660.134 336.908C660.134 349.186 650.18 359.14 637.901 359.14H22.2325C9.95383 359.14 0 349.186 0 336.908Z" fill="#F4F5F7"/>
<path d="M78.6688 425.838C78.6688 413.559 88.6226 403.605 100.901 403.605H418.997C431.275 403.605 441.229 413.559 441.229 425.838C441.229 438.116 431.275 448.07 418.997 448.07H100.901C88.6226 448.07 78.6688 438.116 78.6688 425.838Z" fill="#F4F5F7"/>
<path d="M123.134 514.768C123.134 502.489 133.088 492.535 145.366 492.535H538.71C550.989 492.535 560.943 502.489 560.943 514.768C560.943 527.046 550.989 537 538.71 537H145.366C133.088 537 123.134 527.046 123.134 514.768Z" fill="#F4F5F7"/>
<path d="M598.567 425.838C598.567 413.559 608.521 403.605 620.799 403.605H672.105C684.384 403.605 694.338 413.559 694.338 425.838C694.338 438.116 684.384 448.07 672.105 448.07H620.799C608.521 448.07 598.567 438.116 598.567 425.838Z" fill="#F4F5F7"/>
<path d="M468.592 425.838C468.592 413.559 478.546 403.605 490.825 403.605H545.551C557.83 403.605 567.783 413.559 567.783 425.838C567.783 438.116 557.83 448.07 545.551 448.07H490.825C478.546 448.07 468.592 438.116 468.592 425.838Z" fill="#F4F5F7"/>
<path d="M574.624 263.369C574.624 408.824 469.804 340.328 321.516 340.328C173.227 340.328 37.6242 408.824 37.6242 263.369C37.6242 117.915 157.836 0 306.124 0C454.413 0 574.624 117.915 574.624 263.369Z" fill="#F4F5F7"/>
<path d="M368.086 266.79C368.086 302.681 338.803 331.777 302.682 331.777C266.56 331.777 237.278 302.681 237.278 266.79C237.278 230.898 266.56 201.802 302.682 201.802C338.803 201.802 368.086 230.898 368.086 266.79Z" fill="#262626"/>
<path d="M37.6241 256.529H574.624V280.471H37.6241V256.529Z" fill="#262626"/>
<circle cx="303.549" cy="266.79" r="30.7834" fill="#F4F5F7"/>
<rect width="694.338" height="537" fill="url(#paint0_linear_1424_1433)"/>
</g>
<defs>
<linearGradient id="paint0_linear_1424_1433" x1="0" y1="0" x2="694.382" y2="537" gradientUnits="userSpaceOnUse">
<stop stop-color="#262626" stop-opacity="0.49"/>
<stop offset="1" stop-color="#262626"/>
</linearGradient>
</defs>
</svg>
