<svg width="24" height="24" viewBox="0 0 24 24" fill="none" xmlns="http://www.w3.org/2000/svg">
<path d="M14.5 0.75C19.3325 0.75 23.25 4.6675 23.25 9.5C23.25 14.3325 19.3325 18.25 14.5 18.25C12.4487 18.2532 10.4621 17.5326 8.89 16.215L2.08375 23.0212C2.0112 23.0938 1.92506 23.1514 1.83026 23.1906C1.73546 23.2299 1.63386 23.2501 1.53125 23.2501C1.42864 23.2501 1.32704 23.2299 1.23224 23.1906C1.13744 23.1514 1.05131 23.0938 0.978753 23.0212C0.906198 22.9487 0.848642 22.8626 0.809376 22.7678C0.770109 22.673 0.7499 22.5714 0.7499 22.4687C0.7499 22.3661 0.770109 22.2645 0.809376 22.1697C0.848642 22.0749 0.906198 21.9888 0.978753 21.9162L7.785 15.11C6.4676 13.5378 5.747 11.5512 5.75 9.5C5.75 4.6675 9.6675 0.75 14.5 0.75ZM21.6875 9.5C21.6875 5.53062 18.4694 2.3125 14.5 2.3125C10.5306 2.3125 7.3125 5.53062 7.3125 9.5C7.3125 13.4694 10.5306 16.6875 14.5 16.6875C18.4694 16.6875 21.6875 13.4694 21.6875 9.5Z" fill="#EB6D4A"/>
</svg>
